<?xml version="1.0" encoding="UTF-8"?>
<svg xmlns="http://www.w3.org/2000/svg" version="1.1" width="500" height="500" viewBox="0 0 500 500"><rect x="0" y="0" width="500" height="500" fill="#ffffff"/><g transform="scale(12.195)"><g transform="translate(0.000,0.000)"><path fill-rule="evenodd" d="M9 0.45L9 0.55A0.45 0.45 0 0 1 8.55 1L8.45 1A0.45 0.45 0 0 0 8 1.45L8 1.55A0.45 0.45 0 0 0 8.45 2L8.55 2A0.45 0.45 0 0 1 9 2.45L9 2.55A0.45 0.45 0 0 1 8.55 3L8.45 3A0.45 0.45 0 0 0 8 3.45L8 3.55A0.45 0.45 0 0 0 8.45 4L8.55 4A0.45 0.45 0 0 0 9 3.55L9 3.45A0.45 0.45 0 0 1 9.45 3L9.55 3A0.45 0.45 0 0 1 10 3.45L10 3.55A0.45 0.45 0 0 0 10.45 4L11.55 4A0.45 0.45 0 0 1 12 4.45L12 4.55A0.45 0.45 0 0 0 12.45 5L12.55 5A0.45 0.45 0 0 1 13 5.45L13 5.55A0.45 0.45 0 0 1 12.55 6L12.45 6A0.45 0.45 0 0 0 12 6.45L12 6.55A0.45 0.45 0 0 1 11.55 7L11.45 7A0.45 0.45 0 0 1 11 6.55L11 5.45A0.45 0.45 0 0 0 10.55 5L10.45 5A0.45 0.45 0 0 0 10 5.45L10 6.55A0.45 0.45 0 0 1 9.55 7L9.45 7A0.45 0.45 0 0 1 9 6.55L9 5.45A0.45 0.45 0 0 0 8.55 5L8.45 5A0.45 0.45 0 0 0 8 5.45L8 6.55A0.45 0.45 0 0 0 8.45 7L8.55 7A0.45 0.45 0 0 1 9 7.45L9 7.55A0.45 0.45 0 0 1 8.55 8L6.45 8A0.45 0.45 0 0 0 6 8.45L6 8.55A0.45 0.45 0 0 0 6.45 9L6.55 9A0.45 0.45 0 0 1 7 9.45L7 9.55A0.45 0.45 0 0 1 6.55 10L5.45 10A0.45 0.45 0 0 1 5 9.55L5 8.45A0.45 0.45 0 0 0 4.55 8L0.45 8A0.45 0.45 0 0 0 0 8.45L0 8.55A0.45 0.45 0 0 0 0.45 9L2.55 9A0.45 0.45 0 0 1 3 9.45L3 9.55A0.45 0.45 0 0 1 2.55 10L1.45 10A0.45 0.45 0 0 0 1 10.45L1 10.55A0.45 0.45 0 0 0 1.45 11L1.55 11A0.45 0.45 0 0 1 2 11.45L2 12.55A0.45 0.45 0 0 1 1.55 13L1.45 13A0.45 0.45 0 0 1 1 12.55L1 12.45A0.45 0.45 0 0 0 0.55 12L0.45 12A0.45 0.45 0 0 0 0 12.45L0 13.55A0.45 0.45 0 0 0 0.45 14L3.55 14A0.45 0.45 0 0 1 4 14.45L4 14.55A0.45 0.45 0 0 1 3.55 15L3.45 15A0.45 0.45 0 0 0 3 15.45L3 15.55A0.45 0.45 0 0 0 3.45 16L4.55 16A0.45 0.45 0 0 1 5 16.45L5 16.55A0.45 0.45 0 0 1 4.55 17L3.45 17A0.45 0.45 0 0 0 3 17.45L3 17.55A0.45 0.45 0 0 0 3.45 18L4.55 18A0.45 0.45 0 0 1 5 18.45L5 18.55A0.45 0.45 0 0 1 4.55 19L2.45 19A0.45 0.45 0 0 1 2 18.55L2 18.45A0.45 0.45 0 0 0 1.55 18L1.45 18A0.45 0.45 0 0 0 1 18.45L1 22.55A0.45 0.45 0 0 1 0.55 23L0.45 23A0.45 0.45 0 0 0 0 23.45L0 25.55A0.45 0.45 0 0 0 0.45 26L0.55 26A0.45 0.45 0 0 0 1 25.55L1 23.45A0.45 0.45 0 0 1 1.45 23L2.55 23A0.45 0.45 0 0 1 3 23.45L3 23.55A0.45 0.45 0 0 1 2.55 24L2.45 24A0.45 0.45 0 0 0 2 24.45L2 25.55A0.45 0.45 0 0 0 2.45 26L5.55 26A0.45 0.45 0 0 1 6 26.45L6 26.55A0.45 0.45 0 0 0 6.45 27L6.55 27A0.45 0.45 0 0 0 7 26.55L7 26.45A0.45 0.45 0 0 0 6.55 26L6.45 26A0.45 0.45 0 0 1 6 25.55L6 25.45A0.45 0.45 0 0 1 6.45 25L7.55 25A0.45 0.45 0 0 1 8 25.45L8 27.55A0.45 0.45 0 0 1 7.55 28L6.45 28A0.45 0.45 0 0 0 6 28.45L6 28.55A0.45 0.45 0 0 0 6.45 29L6.55 29A0.45 0.45 0 0 1 7 29.45L7 29.55A0.45 0.45 0 0 1 6.55 30L6.45 30A0.45 0.45 0 0 0 6 30.45L6 30.55A0.45 0.45 0 0 1 5.55 31L5.45 31A0.45 0.45 0 0 1 5 30.55L5 29.45A0.45 0.45 0 0 0 4.55 29L2.45 29A0.45 0.45 0 0 1 2 28.55L2 28.45A0.45 0.45 0 0 1 2.45 28L2.55 28A0.45 0.45 0 0 0 3 27.55L3 27.45A0.45 0.45 0 0 0 2.55 27L2.45 27A0.45 0.45 0 0 0 2 27.45L2 27.55A0.45 0.45 0 0 1 1.55 28L0.45 28A0.45 0.45 0 0 0 0 28.45L0 32.55A0.45 0.45 0 0 0 0.45 33L0.55 33A0.45 0.45 0 0 0 1 32.55L1 29.45A0.45 0.45 0 0 1 1.45 29L1.55 29A0.45 0.45 0 0 1 2 29.45L2 29.55A0.45 0.45 0 0 0 2.45 30L2.55 30A0.45 0.45 0 0 1 3 30.45L3 30.55A0.45 0.45 0 0 0 3.45 31L3.55 31A0.45 0.45 0 0 1 4 31.45L4 31.55A0.45 0.45 0 0 1 3.55 32L2.45 32A0.45 0.45 0 0 0 2 32.45L2 32.55A0.45 0.45 0 0 0 2.45 33L3.55 33A0.45 0.45 0 0 0 4 32.55L4 32.45A0.45 0.45 0 0 1 4.45 32L5.55 32A0.45 0.45 0 0 1 6 32.45L6 32.55A0.45 0.45 0 0 0 6.45 33L6.55 33A0.45 0.45 0 0 0 7 32.55L7 32.45A0.45 0.45 0 0 0 6.55 32L6.45 32A0.45 0.45 0 0 1 6 31.55L6 31.45A0.45 0.45 0 0 1 6.45 31L6.55 31A0.45 0.45 0 0 0 7 30.55L7 30.45A0.45 0.45 0 0 1 7.45 30L7.55 30A0.45 0.45 0 0 1 8 30.45L8 34.55A0.45 0.45 0 0 0 8.45 35L8.55 35A0.45 0.45 0 0 0 9 34.55L9 30.45A0.45 0.45 0 0 1 9.45 30L9.55 30A0.45 0.45 0 0 0 10 29.55L10 29.45A0.45 0.45 0 0 1 10.45 29L10.55 29A0.45 0.45 0 0 0 11 28.55L11 28.45A0.45 0.45 0 0 1 11.45 28L12.55 28A0.45 0.45 0 0 0 13 27.55L13 27.45A0.45 0.45 0 0 1 13.45 27L15.55 27A0.45 0.45 0 0 1 16 27.45L16 27.55A0.45 0.45 0 0 1 15.55 28L14.45 28A0.45 0.45 0 0 0 14 28.45L14 28.55A0.45 0.45 0 0 0 14.45 29L15.55 29A0.45 0.45 0 0 0 16 28.55L16 28.45A0.45 0.45 0 0 1 16.45 28L16.55 28A0.45 0.45 0 0 1 17 28.45L17 28.55A0.45 0.45 0 0 0 17.45 29L17.55 29A0.45 0.45 0 0 1 18 29.45L18 29.55A0.45 0.45 0 0 1 17.55 30L15.45 30A0.45 0.45 0 0 0 15 30.45L15 30.55A0.45 0.45 0 0 1 14.55 31L14.45 31A0.45 0.45 0 0 1 14 30.55L14 30.45A0.45 0.45 0 0 0 13.55 30L13.45 30A0.45 0.45 0 0 1 13 29.55L13 29.45A0.45 0.45 0 0 0 12.55 29L12.45 29A0.45 0.45 0 0 0 12 29.45L12 29.55A0.45 0.45 0 0 0 12.45 30L12.55 30A0.45 0.45 0 0 1 13 30.45L13 30.55A0.45 0.45 0 0 1 12.55 31L12.45 31A0.45 0.45 0 0 0 12 31.45L12 31.55A0.45 0.45 0 0 0 12.45 32L14.55 32A0.45 0.45 0 0 1 15 32.45L15 32.55A0.45 0.45 0 0 1 14.55 33L14.45 33A0.45 0.45 0 0 0 14 33.45L14 33.55A0.45 0.45 0 0 0 14.45 34L14.55 34A0.45 0.45 0 0 1 15 34.45L15 34.55A0.45 0.45 0 0 0 15.45 35L15.55 35A0.45 0.45 0 0 1 16 35.45L16 35.55A0.45 0.45 0 0 1 15.55 36L15.45 36A0.45 0.45 0 0 0 15 36.45L15 37.55A0.45 0.45 0 0 1 14.55 38L11.45 38A0.45 0.45 0 0 1 11 37.55L11 36.45A0.45 0.45 0 0 1 11.45 36L11.55 36A0.45 0.45 0 0 1 12 36.45L12 36.55A0.45 0.45 0 0 0 12.45 37L12.55 37A0.45 0.45 0 0 0 13 36.55L13 36.45A0.45 0.45 0 0 0 12.55 36L12.45 36A0.45 0.45 0 0 1 12 35.55L12 35.45A0.45 0.45 0 0 1 12.45 35L12.55 35A0.45 0.45 0 0 0 13 34.55L13 33.45A0.45 0.45 0 0 0 12.55 33L11.45 33A0.45 0.45 0 0 1 11 32.55L11 31.45A0.45 0.45 0 0 0 10.55 31L10.45 31A0.45 0.45 0 0 0 10 31.45L10 32.55A0.45 0.45 0 0 0 10.45 33L10.55 33A0.45 0.45 0 0 1 11 33.45L11 33.55A0.45 0.45 0 0 0 11.45 34L11.55 34A0.45 0.45 0 0 1 12 34.45L12 34.55A0.45 0.45 0 0 1 11.55 35L10.45 35A0.45 0.45 0 0 0 10 35.45L10 35.55A0.45 0.45 0 0 1 9.55 36L8.45 36A0.45 0.45 0 0 0 8 36.45L8 40.55A0.45 0.45 0 0 0 8.45 41L8.55 41A0.45 0.45 0 0 0 9 40.55L9 40.45A0.45 0.45 0 0 1 9.45 40L9.55 40A0.45 0.45 0 0 1 10 40.45L10 40.55A0.45 0.45 0 0 0 10.45 41L12.55 41A0.45 0.45 0 0 0 13 40.55L13 40.45A0.45 0.45 0 0 0 12.55 40L12.45 40A0.45 0.45 0 0 1 12 39.55L12 39.45A0.45 0.45 0 0 1 12.45 39L17.55 39A0.45 0.45 0 0 0 18 38.55L18 38.45A0.45 0.45 0 0 0 17.55 38L17.45 38A0.45 0.45 0 0 1 17 37.55L17 37.45A0.45 0.45 0 0 1 17.45 37L17.55 37A0.45 0.45 0 0 0 18 36.55L18 36.45A0.45 0.45 0 0 0 17.55 36L17.45 36A0.45 0.45 0 0 1 17 35.55L17 35.45A0.45 0.45 0 0 1 17.45 35L18.55 35A0.45 0.45 0 0 1 19 35.45L19 35.55A0.45 0.45 0 0 0 19.45 36L21.55 36A0.45 0.45 0 0 1 22 36.45L22 36.55A0.45 0.45 0 0 1 21.55 37L20.45 37A0.45 0.45 0 0 0 20 37.45L20 38.55A0.45 0.45 0 0 1 19.55 39L19.45 39A0.45 0.45 0 0 0 19 39.45L19 39.55A0.45 0.45 0 0 1 18.55 40L14.45 40A0.45 0.45 0 0 0 14 40.45L14 40.55A0.45 0.45 0 0 0 14.45 41L18.55 41A0.45 0.45 0 0 0 19 40.55L19 40.45A0.45 0.45 0 0 1 19.45 40L19.55 40A0.45 0.45 0 0 0 20 39.55L20 39.45A0.45 0.45 0 0 1 20.45 39L20.55 39A0.45 0.45 0 0 1 21 39.45L21 39.55A0.45 0.45 0 0 0 21.45 40L21.55 40A0.45 0.45 0 0 1 22 40.45L22 40.55A0.45 0.45 0 0 0 22.45 41L22.55 41A0.45 0.45 0 0 0 23 40.55L23 40.45A0.45 0.45 0 0 1 23.45 40L23.55 40A0.45 0.45 0 0 1 24 40.45L24 40.55A0.45 0.45 0 0 0 24.45 41L27.55 41A0.45 0.45 0 0 0 28 40.55L28 40.45A0.45 0.45 0 0 0 27.55 40L26.45 40A0.45 0.45 0 0 1 26 39.55L26 39.45A0.45 0.45 0 0 1 26.45 39L29.55 39A0.45 0.45 0 0 0 30 38.55L30 38.45A0.45 0.45 0 0 0 29.55 38L29.45 38A0.45 0.45 0 0 1 29 37.55L29 37.45A0.45 0.45 0 0 1 29.45 37L29.55 37A0.45 0.45 0 0 0 30 36.55L30 36.45A0.45 0.45 0 0 0 29.55 36L29.45 36A0.45 0.45 0 0 1 29 35.55L29 35.45A0.45 0.45 0 0 1 29.45 35L30.55 35A0.45 0.45 0 0 1 31 35.45L31 36.55A0.45 0.45 0 0 0 31.45 37L31.55 37A0.45 0.45 0 0 1 32 37.45L32 37.55A0.45 0.45 0 0 0 32.45 38L32.55 38A0.45 0.45 0 0 0 33 37.55L33 37.45A0.45 0.45 0 0 1 33.45 37L39.55 37A0.45 0.45 0 0 0 40 36.55L40 36.45A0.45 0.45 0 0 1 40.45 36L40.55 36A0.45 0.45 0 0 0 41 35.55L41 35.45A0.45 0.45 0 0 0 40.55 35L40.45 35A0.45 0.45 0 0 0 40 35.45L40 35.55A0.45 0.45 0 0 1 39.55 36L37.45 36A0.45 0.45 0 0 1 37 35.55L37 35.45A0.45 0.45 0 0 1 37.45 35L38.55 35A0.45 0.45 0 0 0 39 34.55L39 34.45A0.45 0.45 0 0 0 38.55 34L38.45 34A0.45 0.45 0 0 1 38 33.55L38 31.45A0.45 0.45 0 0 1 38.45 31L38.55 31A0.45 0.45 0 0 1 39 31.45L39 32.55A0.45 0.45 0 0 0 39.45 33L39.55 33A0.45 0.45 0 0 1 40 33.45L40 33.55A0.45 0.45 0 0 0 40.45 34L40.55 34A0.45 0.45 0 0 0 41 33.55L41 31.45A0.45 0.45 0 0 0 40.55 31L39.45 31A0.45 0.45 0 0 1 39 30.55L39 30.45A0.45 0.45 0 0 1 39.45 30L39.55 30A0.45 0.45 0 0 0 40 29.55L40 28.45A0.45 0.45 0 0 1 40.45 28L40.55 28A0.45 0.45 0 0 0 41 27.55L41 27.45A0.45 0.45 0 0 0 40.55 27L40.45 27A0.45 0.45 0 0 1 40 26.55L40 25.45A0.45 0.45 0 0 1 40.45 25L40.55 25A0.45 0.45 0 0 0 41 24.55L41 24.45A0.45 0.45 0 0 0 40.55 24L40.45 24A0.45 0.45 0 0 1 40 23.55L40 20.45A0.45 0.45 0 0 1 40.45 20L40.55 20A0.45 0.45 0 0 0 41 19.55L41 19.45A0.45 0.45 0 0 0 40.55 19L40.45 19A0.45 0.45 0 0 0 40 19.45L40 19.55A0.45 0.45 0 0 1 39.55 20L39.45 20A0.45 0.45 0 0 0 39 20.45L39 21.55A0.45 0.45 0 0 1 38.55 22L38.45 22A0.45 0.45 0 0 1 38 21.55L38 21.45A0.45 0.45 0 0 0 37.55 21L36.45 21A0.45 0.45 0 0 1 36 20.55L36 20.45A0.45 0.45 0 0 1 36.45 20L37.55 20A0.45 0.45 0 0 0 38 19.55L38 19.45A0.45 0.45 0 0 1 38.45 19L38.55 19A0.45 0.45 0 0 0 39 18.55L39 18.45A0.45 0.45 0 0 1 39.45 18L40.55 18A0.45 0.45 0 0 0 41 17.55L41 17.45A0.45 0.45 0 0 0 40.55 17L39.45 17A0.45 0.45 0 0 1 39 16.55L39 16.45A0.45 0.45 0 0 1 39.45 16L40.55 16A0.45 0.45 0 0 0 41 15.55L41 14.45A0.45 0.45 0 0 0 40.55 14L40.45 14A0.45 0.45 0 0 1 40 13.55L40 12.45A0.45 0.45 0 0 1 40.45 12L40.55 12A0.45 0.45 0 0 0 41 11.55L41 10.45A0.45 0.45 0 0 0 40.55 10L40.45 10A0.45 0.45 0 0 1 40 9.55L40 8.45A0.45 0.45 0 0 0 39.55 8L39.45 8A0.45 0.45 0 0 0 39 8.45L39 9.55A0.45 0.45 0 0 1 38.55 10L38.45 10A0.45 0.45 0 0 1 38 9.55L38 8.45A0.45 0.45 0 0 0 37.55 8L37.45 8A0.45 0.45 0 0 0 37 8.45L37 8.55A0.45 0.45 0 0 1 36.55 9L36.45 9A0.45 0.45 0 0 1 36 8.55L36 8.45A0.45 0.45 0 0 0 35.55 8L35.45 8A0.45 0.45 0 0 0 35 8.45L35 10.55A0.45 0.45 0 0 1 34.55 11L34.45 11A0.45 0.45 0 0 1 34 10.55L34 8.45A0.45 0.45 0 0 0 33.55 8L33.45 8A0.45 0.45 0 0 1 33 7.55L33 6.45A0.45 0.45 0 0 0 32.55 6L32.45 6A0.45 0.45 0 0 0 32 6.45L32 6.55A0.45 0.45 0 0 1 31.55 7L31.45 7A0.45 0.45 0 0 1 31 6.55L31 6.45A0.45 0.45 0 0 0 30.55 6L30.45 6A0.45 0.45 0 0 1 30 5.55L30 5.45A0.45 0.45 0 0 1 30.45 5L31.55 5A0.45 0.45 0 0 0 32 4.55L32 4.45A0.45 0.45 0 0 1 32.45 4L32.55 4A0.45 0.45 0 0 0 33 3.55L33 1.45A0.45 0.45 0 0 0 32.55 1L31.45 1A0.45 0.45 0 0 1 31 0.55L31 0.45A0.45 0.45 0 0 0 30.55 0L30.45 0A0.45 0.45 0 0 0 30 0.45L30 0.55A0.45 0.45 0 0 1 29.55 1L29.45 1A0.45 0.45 0 0 1 29 0.55L29 0.45A0.45 0.45 0 0 0 28.55 0L26.45 0A0.45 0.45 0 0 0 26 0.45L26 0.55A0.45 0.45 0 0 1 25.55 1L25.45 1A0.45 0.45 0 0 1 25 0.55L25 0.45A0.45 0.45 0 0 0 24.55 0L23.45 0A0.45 0.45 0 0 0 23 0.45L23 1.55A0.45 0.45 0 0 1 22.55 2L21.45 2A0.45 0.45 0 0 1 21 1.55L21 1.45A0.45 0.45 0 0 1 21.45 1L21.55 1A0.45 0.45 0 0 0 22 0.55L22 0.45A0.45 0.45 0 0 0 21.55 0L20.45 0A0.45 0.45 0 0 0 20 0.45L20 0.55A0.45 0.45 0 0 1 19.55 1L17.45 1A0.45 0.45 0 0 1 17 0.55L17 0.45A0.45 0.45 0 0 0 16.55 0L15.45 0A0.45 0.45 0 0 0 15 0.45L15 1.55A0.45 0.45 0 0 1 14.55 2L14.45 2A0.45 0.45 0 0 1 14 1.55L14 1.45A0.45 0.45 0 0 0 13.55 1L13.45 1A0.45 0.45 0 0 1 13 0.55L13 0.45A0.45 0.45 0 0 0 12.55 0L11.45 0A0.45 0.45 0 0 0 11 0.45L11 0.55A0.45 0.45 0 0 1 10.55 1L10.45 1A0.45 0.45 0 0 1 10 0.55L10 0.45A0.45 0.45 0 0 0 9.55 0L9.45 0A0.45 0.45 0 0 0 9 0.45ZM11 1.45L11 1.55A0.45 0.45 0 0 1 10.55 2L10.45 2A0.45 0.45 0 0 0 10 2.45L10 2.55A0.45 0.45 0 0 0 10.45 3L11.55 3A0.45 0.45 0 0 1 12 3.45L12 3.55A0.45 0.45 0 0 0 12.45 4L12.55 4A0.45 0.45 0 0 1 13 4.45L13 4.55A0.45 0.45 0 0 0 13.45 5L13.55 5A0.45 0.45 0 0 1 14 5.45L14 5.55A0.45 0.45 0 0 1 13.55 6L13.45 6A0.45 0.45 0 0 0 13 6.45L13 6.55A0.45 0.45 0 0 1 12.55 7L12.45 7A0.45 0.45 0 0 0 12 7.45L12 7.55A0.45 0.45 0 0 1 11.55 8L11.45 8A0.45 0.45 0 0 0 11 8.45L11 9.55A0.45 0.45 0 0 1 10.55 10L10.45 10A0.45 0.45 0 0 1 10 9.55L10 8.45A0.45 0.45 0 0 0 9.55 8L9.45 8A0.45 0.45 0 0 0 9 8.45L9 8.55A0.45 0.45 0 0 1 8.55 9L8.45 9A0.45 0.45 0 0 0 8 9.45L8 10.55A0.45 0.45 0 0 0 8.45 11L10.55 11A0.45 0.45 0 0 0 11 10.55L11 10.45A0.45 0.45 0 0 1 11.45 10L11.55 10A0.45 0.45 0 0 1 12 10.45L12 10.55A0.45 0.45 0 0 0 12.45 11L12.55 11A0.45 0.45 0 0 1 13 11.45L13 11.55A0.45 0.45 0 0 1 12.55 12L12.45 12A0.45 0.45 0 0 0 12 12.45L12 12.55A0.45 0.45 0 0 1 11.55 13L11.45 13A0.45 0.45 0 0 1 11 12.55L11 12.45A0.45 0.45 0 0 0 10.55 12L7.45 12A0.45 0.45 0 0 1 7 11.55L7 11.45A0.45 0.45 0 0 0 6.55 11L5.45 11A0.45 0.45 0 0 1 5 10.55L5 10.45A0.45 0.45 0 0 0 4.55 10L4.45 10A0.45 0.45 0 0 0 4 10.45L4 10.55A0.45 0.45 0 0 1 3.55 11L3.45 11A0.45 0.45 0 0 0 3 11.45L3 12.55A0.45 0.45 0 0 0 3.45 13L3.55 13A0.45 0.45 0 0 1 4 13.45L4 13.55A0.45 0.45 0 0 0 4.45 14L7.55 14A0.45 0.45 0 0 1 8 14.45L8 14.55A0.45 0.45 0 0 1 7.55 15L6.45 15A0.45 0.45 0 0 0 6 15.45L6 15.55A0.45 0.45 0 0 0 6.45 16L6.55 16A0.45 0.45 0 0 1 7 16.45L7 16.55A0.45 0.45 0 0 1 6.55 17L5.45 17A0.45 0.45 0 0 0 5 17.45L5 17.55A0.45 0.45 0 0 0 5.45 18L6.55 18A0.45 0.45 0 0 1 7 18.45L7 18.55A0.45 0.45 0 0 1 6.55 19L6.45 19A0.45 0.45 0 0 0 6 19.45L6 19.55A0.45 0.45 0 0 0 6.45 20L6.55 20A0.45 0.45 0 0 1 7 20.45L7 20.55A0.45 0.45 0 0 1 6.55 21L5.45 21A0.45 0.45 0 0 1 5 20.55L5 20.45A0.45 0.45 0 0 0 4.55 20L3.45 20A0.45 0.45 0 0 0 3 20.45L3 20.55A0.45 0.45 0 0 1 2.55 21L2.45 21A0.45 0.45 0 0 0 2 21.45L2 21.55A0.45 0.45 0 0 0 2.45 22L2.55 22A0.45 0.45 0 0 1 3 22.45L3 22.55A0.45 0.45 0 0 0 3.45 23L3.55 23A0.45 0.45 0 0 1 4 23.45L4 23.55A0.45 0.45 0 0 1 3.55 24L3.45 24A0.45 0.45 0 0 0 3 24.45L3 24.55A0.45 0.45 0 0 0 3.45 25L3.55 25A0.45 0.45 0 0 0 4 24.55L4 24.45A0.45 0.45 0 0 1 4.45 24L7.55 24A0.45 0.45 0 0 1 8 24.45L8 24.55A0.45 0.45 0 0 0 8.45 25L8.55 25A0.45 0.45 0 0 1 9 25.45L9 25.55A0.45 0.45 0 0 0 9.45 26L9.55 26A0.45 0.45 0 0 1 10 26.45L10 26.55A0.45 0.45 0 0 1 9.55 27L9.45 27A0.45 0.45 0 0 0 9 27.45L9 27.55A0.45 0.45 0 0 0 9.45 28L10.55 28A0.45 0.45 0 0 0 11 27.55L11 27.45A0.45 0.45 0 0 1 11.45 27L12.55 27A0.45 0.45 0 0 0 13 26.55L13 26.45A0.45 0.45 0 0 1 13.45 26L13.55 26A0.45 0.45 0 0 0 14 25.55L14 24.45A0.45 0.45 0 0 1 14.45 24L15.55 24A0.45 0.45 0 0 0 16 23.55L16 23.45A0.45 0.45 0 0 1 16.45 23L16.55 23A0.45 0.45 0 0 1 17 23.45L17 23.55A0.45 0.45 0 0 0 17.45 24L18.55 24A0.45 0.45 0 0 1 19 24.45L19 24.55A0.45 0.45 0 0 1 18.55 25L15.45 25A0.45 0.45 0 0 0 15 25.45L15 25.55A0.45 0.45 0 0 0 15.45 26L15.55 26A0.45 0.45 0 0 1 16 26.45L16 26.55A0.45 0.45 0 0 0 16.45 27L16.55 27A0.45 0.45 0 0 1 17 27.45L17 27.55A0.45 0.45 0 0 0 17.45 28L17.55 28A0.45 0.45 0 0 1 18 28.45L18 28.55A0.45 0.45 0 0 0 18.45 29L19.55 29A0.45 0.45 0 0 0 20 28.55L20 28.45A0.45 0.45 0 0 0 19.55 28L18.45 28A0.45 0.45 0 0 1 18 27.55L18 27.45A0.45 0.45 0 0 1 18.45 27L18.55 27A0.45 0.45 0 0 0 19 26.55L19 25.45A0.45 0.45 0 0 1 19.45 25L19.55 25A0.45 0.45 0 0 0 20 24.55L20 24.45A0.45 0.45 0 0 1 20.45 24L20.55 24A0.45 0.45 0 0 1 21 24.45L21 24.55A0.45 0.45 0 0 0 21.45 25L21.55 25A0.45 0.45 0 0 1 22 25.45L22 25.55A0.45 0.45 0 0 1 21.55 26L20.45 26A0.45 0.45 0 0 0 20 26.45L20 26.55A0.45 0.45 0 0 0 20.45 27L22.55 27A0.45 0.45 0 0 0 23 26.55L23 26.45A0.45 0.45 0 0 1 23.45 26L23.55 26A0.45 0.45 0 0 0 24 25.55L24 25.45A0.45 0.45 0 0 1 24.45 25L24.55 25A0.45 0.45 0 0 1 25 25.45L25 25.55A0.45 0.45 0 0 0 25.45 26L25.55 26A0.45 0.45 0 0 1 26 26.45L26 26.55A0.45 0.45 0 0 1 25.55 27L24.45 27A0.45 0.45 0 0 0 24 27.45L24 27.55A0.45 0.45 0 0 1 23.55 28L21.45 28A0.45 0.45 0 0 0 21 28.45L21 28.55A0.45 0.45 0 0 0 21.45 29L23.55 29A0.45 0.45 0 0 1 24 29.45L24 29.55A0.45 0.45 0 0 1 23.55 30L23.45 30A0.45 0.45 0 0 0 23 30.45L23 30.55A0.45 0.45 0 0 0 23.45 31L24.55 31A0.45 0.45 0 0 1 25 31.45L25 31.55A0.45 0.45 0 0 1 24.55 32L23.45 32A0.45 0.45 0 0 0 23 32.45L23 33.55A0.45 0.45 0 0 1 22.55 34L21.45 34A0.45 0.45 0 0 1 21 33.55L21 31.45A0.45 0.45 0 0 1 21.45 31L21.55 31A0.45 0.45 0 0 0 22 30.55L22 30.45A0.45 0.45 0 0 0 21.55 30L21.45 30A0.45 0.45 0 0 0 21 30.45L21 30.55A0.45 0.45 0 0 1 20.55 31L20.45 31A0.45 0.45 0 0 1 20 30.55L20 30.45A0.45 0.45 0 0 0 19.55 30L19.45 30A0.45 0.45 0 0 0 19 30.45L19 30.55A0.45 0.45 0 0 0 19.45 31L19.55 31A0.45 0.45 0 0 1 20 31.45L20 31.55A0.45 0.45 0 0 1 19.55 32L18.45 32A0.45 0.45 0 0 1 18 31.55L18 31.45A0.45 0.45 0 0 0 17.55 31L15.45 31A0.45 0.45 0 0 0 15 31.45L15 31.55A0.45 0.45 0 0 0 15.45 32L17.55 32A0.45 0.45 0 0 1 18 32.45L18 32.55A0.45 0.45 0 0 1 17.55 33L17.45 33A0.45 0.45 0 0 0 17 33.45L17 33.55A0.45 0.45 0 0 1 16.55 34L16.45 34A0.45 0.45 0 0 0 16 34.45L16 34.55A0.45 0.45 0 0 0 16.45 35L16.55 35A0.45 0.45 0 0 0 17 34.55L17 34.45A0.45 0.45 0 0 1 17.45 34L17.55 34A0.45 0.45 0 0 0 18 33.55L18 33.45A0.45 0.45 0 0 1 18.45 33L18.55 33A0.45 0.45 0 0 1 19 33.45L19 34.55A0.45 0.45 0 0 0 19.45 35L19.55 35A0.45 0.45 0 0 0 20 34.55L20 34.45A0.45 0.45 0 0 1 20.45 34L20.55 34A0.45 0.45 0 0 1 21 34.45L21 34.55A0.45 0.45 0 0 0 21.45 35L22.55 35A0.45 0.45 0 0 0 23 34.55L23 34.45A0.45 0.45 0 0 1 23.45 34L23.55 34A0.45 0.45 0 0 0 24 33.55L24 33.45A0.45 0.45 0 0 1 24.45 33L24.55 33A0.45 0.45 0 0 1 25 33.45L25 33.55A0.45 0.45 0 0 0 25.45 34L25.55 34A0.45 0.45 0 0 1 26 34.45L26 34.55A0.45 0.45 0 0 1 25.55 35L24.45 35A0.45 0.45 0 0 0 24 35.45L24 35.55A0.45 0.45 0 0 1 23.55 36L23.45 36A0.45 0.45 0 0 0 23 36.45L23 37.55A0.45 0.45 0 0 1 22.55 38L21.45 38A0.45 0.45 0 0 0 21 38.45L21 38.55A0.45 0.45 0 0 0 21.45 39L21.55 39A0.45 0.45 0 0 1 22 39.45L22 39.55A0.45 0.45 0 0 0 22.45 40L22.55 40A0.45 0.45 0 0 0 23 39.55L23 39.45A0.45 0.45 0 0 1 23.45 39L23.55 39A0.45 0.45 0 0 1 24 39.45L24 39.55A0.45 0.45 0 0 0 24.45 40L24.55 40A0.45 0.45 0 0 0 25 39.55L25 39.45A0.45 0.45 0 0 0 24.55 39L24.45 39A0.45 0.45 0 0 1 24 38.55L24 38.45A0.45 0.45 0 0 1 24.45 38L26.55 38A0.45 0.45 0 0 0 27 37.55L27 36.45A0.45 0.45 0 0 1 27.45 36L27.55 36A0.45 0.45 0 0 0 28 35.55L28 35.45A0.45 0.45 0 0 0 27.55 35L27.45 35A0.45 0.45 0 0 1 27 34.55L27 34.45A0.45 0.45 0 0 1 27.45 34L27.55 34A0.45 0.45 0 0 0 28 33.55L28 33.45A0.45 0.45 0 0 1 28.45 33L28.55 33A0.45 0.45 0 0 1 29 33.45L29 33.55A0.45 0.45 0 0 0 29.45 34L30.55 34A0.45 0.45 0 0 0 31 33.55L31 33.45A0.45 0.45 0 0 1 31.45 33L31.55 33A0.45 0.45 0 0 0 32 32.55L32 32.45A0.45 0.45 0 0 1 32.45 32L32.55 32A0.45 0.45 0 0 0 33 31.55L33 31.45A0.45 0.45 0 0 1 33.45 31L34.55 31A0.45 0.45 0 0 1 35 31.45L35 31.55A0.45 0.45 0 0 0 35.45 32L35.55 32A0.45 0.45 0 0 0 36 31.55L36 31.45A0.45 0.45 0 0 1 36.45 31L37.55 31A0.45 0.45 0 0 0 38 30.55L38 30.45A0.45 0.45 0 0 1 38.45 30L38.55 30A0.45 0.45 0 0 0 39 29.55L39 28.45A0.45 0.45 0 0 1 39.45 28L39.55 28A0.45 0.45 0 0 0 40 27.55L40 27.45A0.45 0.45 0 0 0 39.55 27L37.45 27A0.45 0.45 0 0 1 37 26.55L37 25.45A0.45 0.45 0 0 1 37.45 25L37.55 25A0.45 0.45 0 0 1 38 25.45L38 25.55A0.45 0.45 0 0 0 38.45 26L38.55 26A0.45 0.45 0 0 0 39 25.55L39 25.45A0.45 0.45 0 0 0 38.55 25L38.45 25A0.45 0.45 0 0 1 38 24.55L38 24.45A0.45 0.45 0 0 1 38.45 24L38.55 24A0.45 0.45 0 0 0 39 23.55L39 23.45A0.45 0.45 0 0 0 38.55 23L38.45 23A0.45 0.45 0 0 1 38 22.55L38 22.45A0.45 0.45 0 0 0 37.55 22L36.45 22A0.45 0.45 0 0 1 36 21.55L36 21.45A0.45 0.45 0 0 0 35.55 21L35.45 21A0.45 0.45 0 0 1 35 20.55L35 20.45A0.45 0.45 0 0 1 35.45 20L35.55 20A0.45 0.45 0 0 0 36 19.55L36 19.45A0.45 0.45 0 0 1 36.45 19L36.55 19A0.45 0.45 0 0 0 37 18.55L37 17.45A0.45 0.45 0 0 1 37.45 17L37.55 17A0.45 0.45 0 0 1 38 17.45L38 17.55A0.45 0.45 0 0 0 38.45 18L38.55 18A0.45 0.45 0 0 0 39 17.55L39 17.45A0.45 0.45 0 0 0 38.55 17L38.45 17A0.45 0.45 0 0 1 38 16.55L38 16.45A0.45 0.45 0 0 1 38.45 16L38.55 16A0.45 0.45 0 0 0 39 15.55L39 15.45A0.45 0.45 0 0 0 38.55 15L38.45 15A0.45 0.45 0 0 0 38 15.45L38 15.55A0.45 0.45 0 0 1 37.55 16L36.45 16A0.45 0.45 0 0 1 36 15.55L36 15.45A0.45 0.45 0 0 1 36.45 15L36.55 15A0.45 0.45 0 0 0 37 14.55L37 14.45A0.45 0.45 0 0 1 37.45 14L38.55 14A0.45 0.45 0 0 0 39 13.55L39 12.45A0.45 0.45 0 0 1 39.45 12L39.55 12A0.45 0.45 0 0 0 40 11.55L40 11.45A0.45 0.45 0 0 0 39.55 11L38.45 11A0.45 0.45 0 0 0 38 11.45L38 11.55A0.45 0.45 0 0 1 37.55 12L37.45 12A0.45 0.45 0 0 0 37 12.45L37 12.55A0.45 0.45 0 0 1 36.55 13L36.45 13A0.45 0.45 0 0 1 36 12.55L36 12.45A0.45 0.45 0 0 0 35.55 12L35.45 12A0.45 0.45 0 0 0 35 12.45L35 12.55A0.45 0.45 0 0 1 34.55 13L34.45 13A0.45 0.45 0 0 0 34 13.45L34 14.55A0.45 0.45 0 0 0 34.45 15L34.55 15A0.45 0.45 0 0 1 35 15.45L35 15.55A0.45 0.45 0 0 0 35.45 16L35.55 16A0.45 0.45 0 0 1 36 16.45L36 17.55A0.45 0.45 0 0 1 35.55 18L34.45 18A0.45 0.45 0 0 0 34 18.45L34 18.55A0.45 0.45 0 0 1 33.55 19L33.45 19A0.45 0.45 0 0 0 33 19.45L33 19.55A0.45 0.45 0 0 1 32.55 20L31.45 20A0.45 0.45 0 0 1 31 19.55L31 19.45A0.45 0.45 0 0 1 31.45 19L31.55 19A0.45 0.45 0 0 0 32 18.55L32 18.45A0.45 0.45 0 0 1 32.45 18L32.55 18A0.45 0.45 0 0 0 33 17.55L33 17.45A0.45 0.45 0 0 1 33.45 17L33.55 17A0.45 0.45 0 0 0 34 16.55L34 16.45A0.45 0.45 0 0 0 33.55 16L33.45 16A0.45 0.45 0 0 1 33 15.55L33 15.45A0.45 0.45 0 0 0 32.55 15L32.45 15A0.45 0.45 0 0 1 32 14.55L32 14.45A0.45 0.45 0 0 1 32.45 14L32.55 14A0.45 0.45 0 0 0 33 13.55L33 12.45A0.45 0.45 0 0 1 33.45 12L33.55 12A0.45 0.45 0 0 0 34 11.55L34 11.45A0.45 0.45 0 0 0 33.55 11L33.45 11A0.45 0.45 0 0 1 33 10.55L33 10.45A0.45 0.45 0 0 0 32.55 10L32.45 10A0.45 0.45 0 0 0 32 10.45L32 10.55A0.45 0.45 0 0 0 32.45 11L32.55 11A0.45 0.45 0 0 1 33 11.45L33 11.55A0.45 0.45 0 0 1 32.55 12L31.45 12A0.45 0.45 0 0 1 31 11.55L31 11.45A0.45 0.45 0 0 0 30.55 11L28.45 11A0.45 0.45 0 0 1 28 10.55L28 10.45A0.45 0.45 0 0 0 27.55 10L27.45 10A0.45 0.45 0 0 1 27 9.55L27 8.45A0.45 0.45 0 0 1 27.45 8L28.55 8A0.45 0.45 0 0 1 29 8.45L29 9.55A0.45 0.45 0 0 0 29.45 10L30.55 10A0.45 0.45 0 0 0 31 9.55L31 9.45A0.45 0.45 0 0 1 31.45 9L31.55 9A0.45 0.45 0 0 0 32 8.55L32 8.45A0.45 0.45 0 0 0 31.55 8L31.45 8A0.45 0.45 0 0 1 31 7.55L31 7.45A0.45 0.45 0 0 0 30.55 7L30.45 7A0.45 0.45 0 0 1 30 6.55L30 6.45A0.45 0.45 0 0 0 29.55 6L29.45 6A0.45 0.45 0 0 0 29 6.45L29 6.55A0.45 0.45 0 0 1 28.55 7L28.45 7A0.45 0.45 0 0 1 28 6.55L28 6.45A0.45 0.45 0 0 0 27.55 6L27.45 6A0.45 0.45 0 0 0 27 6.45L27 6.55A0.45 0.45 0 0 1 26.55 7L26.45 7A0.45 0.45 0 0 1 26 6.55L26 6.45A0.45 0.45 0 0 0 25.55 6L25.45 6A0.45 0.45 0 0 1 25 5.55L25 5.45A0.45 0.45 0 0 1 25.45 5L25.55 5A0.45 0.45 0 0 0 26 4.55L26 4.45A0.45 0.45 0 0 0 25.55 4L25.45 4A0.45 0.45 0 0 0 25 4.45L25 4.55A0.45 0.45 0 0 1 24.55 5L23.45 5A0.45 0.45 0 0 0 23 5.45L23 6.55A0.45 0.45 0 0 1 22.55 7L22.45 7A0.45 0.45 0 0 1 22 6.55L22 5.45A0.45 0.45 0 0 0 21.55 5L21.45 5A0.45 0.45 0 0 1 21 4.55L21 4.45A0.45 0.45 0 0 1 21.45 4L21.55 4A0.45 0.45 0 0 0 22 3.55L22 3.45A0.45 0.45 0 0 0 21.55 3L21.45 3A0.45 0.45 0 0 1 21 2.55L21 2.45A0.45 0.45 0 0 0 20.55 2L20.45 2A0.45 0.45 0 0 0 20 2.45L20 2.55A0.45 0.45 0 0 1 19.55 3L19.45 3A0.45 0.45 0 0 1 19 2.55L19 2.45A0.45 0.45 0 0 0 18.55 2L17.45 2A0.45 0.45 0 0 0 17 2.45L17 2.55A0.45 0.45 0 0 0 17.45 3L17.55 3A0.45 0.45 0 0 1 18 3.45L18 3.55A0.45 0.45 0 0 1 17.55 4L13.45 4A0.45 0.45 0 0 1 13 3.55L13 3.45A0.45 0.45 0 0 1 13.45 3L13.55 3A0.45 0.45 0 0 0 14 2.55L14 2.45A0.45 0.45 0 0 0 13.55 2L13.45 2A0.45 0.45 0 0 1 13 1.55L13 1.45A0.45 0.45 0 0 0 12.55 1L11.45 1A0.45 0.45 0 0 0 11 1.45ZM26 1.45L26 1.55A0.45 0.45 0 0 1 25.55 2L24.45 2A0.45 0.45 0 0 0 24 2.45L24 2.55A0.45 0.45 0 0 1 23.55 3L23.45 3A0.45 0.45 0 0 0 23 3.45L23 3.55A0.45 0.45 0 0 0 23.45 4L23.55 4A0.45 0.45 0 0 0 24 3.55L24 3.45A0.45 0.45 0 0 1 24.45 3L25.55 3A0.45 0.45 0 0 0 26 2.55L26 2.45A0.45 0.45 0 0 1 26.45 2L26.55 2A0.45 0.45 0 0 1 27 2.45L27 2.55A0.45 0.45 0 0 0 27.45 3L27.55 3A0.45 0.45 0 0 0 28 2.55L28 2.45A0.45 0.45 0 0 1 28.45 2L28.55 2A0.45 0.45 0 0 1 29 2.45L29 4.55A0.45 0.45 0 0 0 29.45 5L29.55 5A0.45 0.45 0 0 0 30 4.55L30 4.45A0.45 0.45 0 0 1 30.45 4L31.55 4A0.45 0.45 0 0 0 32 3.55L32 3.45A0.45 0.45 0 0 0 31.55 3L30.45 3A0.45 0.45 0 0 1 30 2.55L30 2.45A0.45 0.45 0 0 1 30.45 2L30.55 2A0.45 0.45 0 0 0 31 1.55L31 1.45A0.45 0.45 0 0 0 30.55 1L30.45 1A0.45 0.45 0 0 0 30 1.45L30 1.55A0.45 0.45 0 0 1 29.55 2L29.45 2A0.45 0.45 0 0 1 29 1.55L29 1.45A0.45 0.45 0 0 0 28.55 1L28.45 1A0.45 0.45 0 0 0 28 1.45L28 1.55A0.45 0.45 0 0 1 27.55 2L27.45 2A0.45 0.45 0 0 1 27 1.55L27 1.45A0.45 0.45 0 0 0 26.55 1L26.45 1A0.45 0.45 0 0 0 26 1.45ZM12 2.45L12 2.55A0.45 0.45 0 0 0 12.45 3L12.55 3A0.45 0.45 0 0 0 13 2.55L13 2.45A0.45 0.45 0 0 0 12.55 2L12.45 2A0.45 0.45 0 0 0 12 2.45ZM15 2.45L15 2.55A0.45 0.45 0 0 0 15.45 3L15.55 3A0.45 0.45 0 0 0 16 2.55L16 2.45A0.45 0.45 0 0 0 15.55 2L15.45 2A0.45 0.45 0 0 0 15 2.45ZM20 3.45L20 3.55A0.45 0.45 0 0 0 20.45 4L20.55 4A0.45 0.45 0 0 0 21 3.55L21 3.45A0.45 0.45 0 0 0 20.55 3L20.45 3A0.45 0.45 0 0 0 20 3.45ZM18 4.45L18 4.55A0.45 0.45 0 0 1 17.55 5L15.45 5A0.45 0.45 0 0 0 15 5.45L15 5.55A0.45 0.45 0 0 1 14.55 6L14.45 6A0.45 0.45 0 0 0 14 6.45L14 6.55A0.45 0.45 0 0 1 13.55 7L13.45 7A0.45 0.45 0 0 0 13 7.45L13 7.55A0.45 0.45 0 0 0 13.45 8L13.55 8A0.45 0.45 0 0 1 14 8.45L14 9.55A0.45 0.45 0 0 1 13.55 10L13.45 10A0.45 0.45 0 0 1 13 9.55L13 9.45A0.45 0.45 0 0 0 12.55 9L12.45 9A0.45 0.45 0 0 0 12 9.45L12 9.55A0.45 0.45 0 0 0 12.45 10L12.55 10A0.45 0.45 0 0 1 13 10.45L13 10.55A0.45 0.45 0 0 0 13.45 11L15.55 11A0.45 0.45 0 0 1 16 11.45L16 11.55A0.45 0.45 0 0 1 15.55 12L13.45 12A0.45 0.45 0 0 0 13 12.45L13 12.55A0.45 0.45 0 0 1 12.55 13L12.45 13A0.45 0.45 0 0 0 12 13.45L12 13.55A0.45 0.45 0 0 0 12.45 14L12.55 14A0.45 0.45 0 0 1 13 14.45L13 14.55A0.45 0.45 0 0 1 12.55 15L12.45 15A0.45 0.45 0 0 0 12 15.45L12 16.55A0.45 0.45 0 0 0 12.45 17L12.55 17A0.45 0.45 0 0 0 13 16.55L13 15.45A0.45 0.45 0 0 1 13.45 15L18.55 15A0.45 0.45 0 0 1 19 15.45L19 15.55A0.45 0.45 0 0 0 19.45 16L19.55 16A0.45 0.45 0 0 0 20 15.55L20 15.45A0.45 0.45 0 0 1 20.45 15L20.55 15A0.45 0.45 0 0 0 21 14.55L21 14.45A0.45 0.45 0 0 1 21.45 14L23.55 14A0.45 0.45 0 0 0 24 13.55L24 13.45A0.45 0.45 0 0 0 23.55 13L23.45 13A0.45 0.45 0 0 1 23 12.55L23 12.45A0.45 0.45 0 0 1 23.45 12L24.55 12A0.45 0.45 0 0 1 25 12.45L25 12.55A0.45 0.45 0 0 0 25.45 13L25.55 13A0.45 0.45 0 0 1 26 13.45L26 13.55A0.45 0.45 0 0 1 25.55 14L25.45 14A0.45 0.45 0 0 0 25 14.45L25 14.55A0.45 0.45 0 0 1 24.55 15L23.45 15A0.45 0.45 0 0 0 23 15.45L23 15.55A0.45 0.45 0 0 1 22.55 16L22.45 16A0.45 0.45 0 0 0 22 16.45L22 16.55A0.45 0.45 0 0 1 21.55 17L21.45 17A0.45 0.45 0 0 0 21 17.45L21 17.55A0.45 0.45 0 0 1 20.55 18L20.45 18A0.45 0.45 0 0 1 20 17.55L20 17.45A0.45 0.45 0 0 0 19.55 17L18.45 17A0.45 0.45 0 0 0 18 17.45L18 17.55A0.45 0.45 0 0 1 17.55 18L15.45 18A0.45 0.45 0 0 1 15 17.55L15 17.45A0.45 0.45 0 0 1 15.45 17L15.55 17A0.45 0.45 0 0 0 16 16.55L16 16.45A0.45 0.45 0 0 0 15.55 16L14.45 16A0.45 0.45 0 0 0 14 16.45L14 17.55A0.45 0.45 0 0 1 13.55 18L13.45 18A0.45 0.45 0 0 0 13 18.45L13 18.55A0.45 0.45 0 0 1 12.55 19L11.45 19A0.45 0.45 0 0 0 11 19.45L11 19.55A0.45 0.45 0 0 0 11.45 20L11.55 20A0.45 0.45 0 0 1 12 20.45L12 20.55A0.45 0.45 0 0 0 12.45 21L14.55 21A0.45 0.45 0 0 1 15 21.45L15 21.55A0.45 0.45 0 0 1 14.55 22L10.45 22A0.45 0.45 0 0 0 10 22.45L10 22.55A0.45 0.45 0 0 1 9.55 23L9.45 23A0.45 0.45 0 0 0 9 23.45L9 23.55A0.45 0.45 0 0 0 9.45 24L9.55 24A0.45 0.45 0 0 1 10 24.45L10 24.55A0.45 0.45 0 0 0 10.45 25L11.55 25A0.45 0.45 0 0 1 12 25.45L12 25.55A0.45 0.45 0 0 0 12.45 26L12.55 26A0.45 0.45 0 0 0 13 25.55L13 24.45A0.45 0.45 0 0 0 12.55 24L12.45 24A0.45 0.45 0 0 1 12 23.55L12 23.45A0.45 0.45 0 0 1 12.45 23L15.55 23A0.45 0.45 0 0 0 16 22.55L16 22.45A0.45 0.45 0 0 1 16.45 22L16.55 22A0.45 0.45 0 0 1 17 22.45L17 22.55A0.45 0.45 0 0 0 17.45 23L18.55 23A0.45 0.45 0 0 1 19 23.45L19 23.55A0.45 0.45 0 0 0 19.45 24L19.55 24A0.45 0.45 0 0 0 20 23.55L20 23.45A0.45 0.45 0 0 1 20.45 23L20.55 23A0.45 0.45 0 0 1 21 23.45L21 23.55A0.45 0.45 0 0 0 21.45 24L24.55 24A0.45 0.45 0 0 0 25 23.55L25 23.45A0.45 0.45 0 0 1 25.45 23L27.55 23A0.45 0.45 0 0 1 28 23.45L28 23.55A0.45 0.45 0 0 1 27.55 24L26.45 24A0.45 0.45 0 0 0 26 24.45L26 24.55A0.45 0.45 0 0 0 26.45 25L26.55 25A0.45 0.45 0 0 1 27 25.45L27 26.55A0.45 0.45 0 0 1 26.55 27L26.45 27A0.45 0.45 0 0 0 26 27.45L26 27.55A0.45 0.45 0 0 1 25.55 28L25.45 28A0.45 0.45 0 0 0 25 28.45L25 28.55A0.45 0.45 0 0 0 25.45 29L25.55 29A0.45 0.45 0 0 1 26 29.45L26 29.55A0.45 0.45 0 0 1 25.55 30L25.45 30A0.45 0.45 0 0 0 25 30.45L25 30.55A0.45 0.45 0 0 0 25.45 31L26.55 31A0.45 0.45 0 0 0 27 30.55L27 30.45A0.45 0.45 0 0 1 27.45 30L27.55 30A0.45 0.45 0 0 1 28 30.45L28 30.55A0.45 0.45 0 0 0 28.45 31L29.55 31A0.45 0.45 0 0 1 30 31.45L30 31.55A0.45 0.45 0 0 0 30.45 32L31.55 32A0.45 0.45 0 0 0 32 31.55L32 31.45A0.45 0.45 0 0 1 32.45 31L32.55 31A0.45 0.45 0 0 0 33 30.55L33 30.45A0.45 0.45 0 0 0 32.55 30L32.45 30A0.45 0.45 0 0 0 32 30.45L32 30.55A0.45 0.45 0 0 1 31.55 31L30.45 31A0.45 0.45 0 0 1 30 30.55L30 30.45A0.45 0.45 0 0 1 30.45 30L30.55 30A0.45 0.45 0 0 0 31 29.55L31 29.45A0.45 0.45 0 0 0 30.55 29L30.45 29A0.45 0.45 0 0 1 30 28.55L30 28.45A0.45 0.45 0 0 1 30.45 28L31.55 28A0.45 0.45 0 0 1 32 28.45L32 28.55A0.45 0.45 0 0 0 32.45 29L32.55 29A0.45 0.45 0 0 0 33 28.55L33 27.45A0.45 0.45 0 0 1 33.45 27L33.55 27A0.45 0.45 0 0 1 34 27.45L34 27.55A0.45 0.45 0 0 0 34.45 28L34.55 28A0.45 0.45 0 0 1 35 28.45L35 28.55A0.45 0.45 0 0 0 35.45 29L36.55 29A0.45 0.45 0 0 1 37 29.45L37 29.55A0.45 0.45 0 0 0 37.45 30L37.55 30A0.45 0.45 0 0 0 38 29.55L38 29.45A0.45 0.45 0 0 0 37.55 29L37.45 29A0.45 0.45 0 0 1 37 28.55L37 27.45A0.45 0.45 0 0 0 36.55 27L36.45 27A0.45 0.45 0 0 0 36 27.45L36 27.55A0.45 0.45 0 0 1 35.55 28L35.45 28A0.45 0.45 0 0 1 35 27.55L35 27.45A0.45 0.45 0 0 0 34.55 27L34.45 27A0.45 0.45 0 0 1 34 26.55L34 26.45A0.45 0.45 0 0 0 33.55 26L32.45 26A0.45 0.45 0 0 0 32 26.45L32 26.55A0.45 0.45 0 0 1 31.55 27L30.45 27A0.45 0.45 0 0 1 30 26.55L30 26.45A0.45 0.45 0 0 0 29.55 26L29.45 26A0.45 0.45 0 0 1 29 25.55L29 25.45A0.45 0.45 0 0 1 29.45 25L30.55 25A0.45 0.45 0 0 0 31 24.55L31 24.45A0.45 0.45 0 0 1 31.45 24L31.55 24A0.45 0.45 0 0 0 32 23.55L32 23.45A0.45 0.45 0 0 1 32.45 23L32.55 23A0.45 0.45 0 0 1 33 23.45L33 23.55A0.45 0.45 0 0 0 33.45 24L33.55 24A0.45 0.45 0 0 1 34 24.45L34 24.55A0.45 0.45 0 0 0 34.45 25L34.55 25A0.45 0.45 0 0 1 35 25.45L35 25.55A0.45 0.45 0 0 0 35.45 26L35.55 26A0.45 0.45 0 0 0 36 25.55L36 24.45A0.45 0.45 0 0 1 36.45 24L36.55 24A0.45 0.45 0 0 0 37 23.55L37 23.45A0.45 0.45 0 0 0 36.55 23L33.45 23A0.45 0.45 0 0 1 33 22.55L33 22.45A0.45 0.45 0 0 1 33.45 22L34.55 22A0.45 0.45 0 0 0 35 21.55L35 21.45A0.45 0.45 0 0 0 34.55 21L34.45 21A0.45 0.45 0 0 1 34 20.55L34 20.45A0.45 0.45 0 0 1 34.45 20L34.55 20A0.45 0.45 0 0 0 35 19.55L35 19.45A0.45 0.45 0 0 0 34.55 19L34.45 19A0.45 0.45 0 0 0 34 19.45L34 19.55A0.45 0.45 0 0 1 33.55 20L33.45 20A0.45 0.45 0 0 0 33 20.45L33 21.55A0.45 0.45 0 0 1 32.55 22L32.45 22A0.45 0.45 0 0 0 32 22.45L32 22.55A0.45 0.45 0 0 1 31.55 23L31.45 23A0.45 0.45 0 0 0 31 23.45L31 23.55A0.45 0.45 0 0 1 30.55 24L29.45 24A0.45 0.45 0 0 1 29 23.55L29 23.45A0.45 0.45 0 0 1 29.45 23L29.55 23A0.45 0.45 0 0 0 30 22.55L30 22.45A0.45 0.45 0 0 0 29.55 22L29.45 22A0.45 0.45 0 0 0 29 22.45L29 22.55A0.45 0.45 0 0 1 28.55 23L28.45 23A0.45 0.45 0 0 1 28 22.55L28 22.45A0.45 0.45 0 0 0 27.55 22L27.45 22A0.45 0.45 0 0 1 27 21.55L27 21.45A0.45 0.45 0 0 1 27.45 21L28.55 21A0.45 0.45 0 0 0 29 20.55L29 20.45A0.45 0.45 0 0 1 29.45 20L29.55 20A0.45 0.45 0 0 1 30 20.45L30 20.55A0.45 0.45 0 0 0 30.45 21L30.55 21A0.45 0.45 0 0 0 31 20.55L31 20.45A0.45 0.45 0 0 0 30.55 20L30.45 20A0.45 0.45 0 0 1 30 19.55L30 19.45A0.45 0.45 0 0 1 30.45 19L30.55 19A0.45 0.45 0 0 0 31 18.55L31 18.45A0.45 0.45 0 0 1 31.45 18L31.55 18A0.45 0.45 0 0 0 32 17.55L32 17.45A0.45 0.45 0 0 0 31.55 17L31.45 17A0.45 0.45 0 0 0 31 17.45L31 17.55A0.45 0.45 0 0 1 30.55 18L27.45 18A0.45 0.45 0 0 0 27 18.45L27 18.55A0.45 0.45 0 0 1 26.55 19L26.45 19A0.45 0.45 0 0 1 26 18.55L26 18.45A0.45 0.45 0 0 0 25.55 18L23.45 18A0.45 0.45 0 0 0 23 18.45L23 18.55A0.45 0.45 0 0 1 22.55 19L21.45 19A0.45 0.45 0 0 1 21 18.55L21 18.45A0.45 0.45 0 0 1 21.45 18L21.55 18A0.45 0.45 0 0 0 22 17.55L22 17.45A0.45 0.45 0 0 1 22.45 17L22.55 17A0.45 0.45 0 0 0 23 16.55L23 16.45A0.45 0.45 0 0 1 23.45 16L23.55 16A0.45 0.45 0 0 1 24 16.45L24 16.55A0.45 0.45 0 0 0 24.45 17L27.55 17A0.45 0.45 0 0 0 28 16.55L28 16.45A0.45 0.45 0 0 0 27.55 16L26.45 16A0.45 0.45 0 0 1 26 15.55L26 14.45A0.45 0.45 0 0 1 26.45 14L26.55 14A0.45 0.45 0 0 1 27 14.45L27 14.55A0.45 0.45 0 0 0 27.45 15L28.55 15A0.45 0.45 0 0 1 29 15.45L29 16.55A0.45 0.45 0 0 0 29.45 17L29.55 17A0.45 0.45 0 0 0 30 16.55L30 15.45A0.45 0.45 0 0 1 30.45 15L30.55 15A0.45 0.45 0 0 1 31 15.45L31 15.55A0.45 0.45 0 0 0 31.45 16L31.55 16A0.45 0.45 0 0 0 32 15.55L32 15.45A0.45 0.45 0 0 0 31.55 15L31.45 15A0.45 0.45 0 0 1 31 14.55L31 14.45A0.45 0.45 0 0 1 31.45 14L31.55 14A0.45 0.45 0 0 0 32 13.55L32 13.45A0.45 0.45 0 0 0 31.55 13L30.45 13A0.45 0.45 0 0 0 30 13.45L30 13.55A0.45 0.45 0 0 1 29.55 14L29.45 14A0.45 0.45 0 0 1 29 13.55L29 12.45A0.45 0.45 0 0 0 28.55 12L27.45 12A0.45 0.45 0 0 1 27 11.55L27 11.45A0.45 0.45 0 0 0 26.55 11L26.45 11A0.45 0.45 0 0 1 26 10.55L26 10.45A0.45 0.45 0 0 0 25.55 10L25.45 10A0.45 0.45 0 0 0 25 10.45L25 10.55A0.45 0.45 0 0 1 24.55 11L21.45 11A0.45 0.45 0 0 1 21 10.55L21 10.45A0.45 0.45 0 0 1 21.45 10L22.55 10A0.45 0.45 0 0 0 23 9.55L23 9.45A0.45 0.45 0 0 0 22.55 9L20.45 9A0.45 0.45 0 0 0 20 9.45L20 10.55A0.45 0.45 0 0 1 19.55 11L18.45 11A0.45 0.45 0 0 1 18 10.55L18 10.45A0.45 0.45 0 0 1 18.45 10L18.55 10A0.45 0.45 0 0 0 19 9.55L19 9.45A0.45 0.45 0 0 0 18.55 9L18.45 9A0.45 0.45 0 0 0 18 9.45L18 9.55A0.45 0.45 0 0 1 17.55 10L17.45 10A0.45 0.45 0 0 1 17 9.55L17 8.45A0.45 0.45 0 0 0 16.55 8L15.45 8A0.45 0.45 0 0 1 15 7.55L15 6.45A0.45 0.45 0 0 1 15.45 6L15.55 6A0.45 0.45 0 0 1 16 6.45L16 6.55A0.45 0.45 0 0 0 16.45 7L16.55 7A0.45 0.45 0 0 0 17 6.55L17 6.45A0.45 0.45 0 0 1 17.45 6L17.55 6A0.45 0.45 0 0 1 18 6.45L18 6.55A0.45 0.45 0 0 0 18.45 7L18.55 7A0.45 0.45 0 0 1 19 7.45L19 7.55A0.45 0.45 0 0 0 19.45 8L19.55 8A0.45 0.45 0 0 0 20 7.55L20 7.45A0.45 0.45 0 0 1 20.45 7L20.55 7A0.45 0.45 0 0 0 21 6.55L21 5.45A0.45 0.45 0 0 0 20.55 5L19.45 5A0.45 0.45 0 0 1 19 4.55L19 4.45A0.45 0.45 0 0 0 18.55 4L18.45 4A0.45 0.45 0 0 0 18 4.45ZM27 4.45L27 4.55A0.45 0.45 0 0 0 27.45 5L27.55 5A0.45 0.45 0 0 0 28 4.55L28 4.45A0.45 0.45 0 0 0 27.55 4L27.45 4A0.45 0.45 0 0 0 27 4.45ZM19 6.45L19 6.55A0.45 0.45 0 0 0 19.45 7L19.55 7A0.45 0.45 0 0 0 20 6.55L20 6.45A0.45 0.45 0 0 0 19.55 6L19.45 6A0.45 0.45 0 0 0 19 6.45ZM24 6.45L24 6.55A0.45 0.45 0 0 1 23.55 7L23.45 7A0.45 0.45 0 0 0 23 7.45L23 7.55A0.45 0.45 0 0 0 23.45 8L23.55 8A0.45 0.45 0 0 1 24 8.45L24 8.55A0.45 0.45 0 0 0 24.45 9L25.55 9A0.45 0.45 0 0 0 26 8.55L26 8.45A0.45 0.45 0 0 0 25.55 8L25.45 8A0.45 0.45 0 0 1 25 7.55L25 6.45A0.45 0.45 0 0 0 24.55 6L24.45 6A0.45 0.45 0 0 0 24 6.45ZM29 7.45L29 7.55A0.45 0.45 0 0 0 29.45 8L29.55 8A0.45 0.45 0 0 1 30 8.45L30 8.55A0.45 0.45 0 0 0 30.45 9L30.55 9A0.45 0.45 0 0 0 31 8.55L31 8.45A0.45 0.45 0 0 0 30.55 8L30.45 8A0.45 0.45 0 0 1 30 7.55L30 7.45A0.45 0.45 0 0 0 29.55 7L29.45 7A0.45 0.45 0 0 0 29 7.45ZM16 10.45L16 10.55A0.45 0.45 0 0 0 16.45 11L16.55 11A0.45 0.45 0 0 1 17 11.45L17 11.55A0.45 0.45 0 0 1 16.55 12L16.45 12A0.45 0.45 0 0 0 16 12.45L16 12.55A0.45 0.45 0 0 1 15.55 13L13.45 13A0.45 0.45 0 0 0 13 13.45L13 13.55A0.45 0.45 0 0 0 13.45 14L15.55 14A0.45 0.45 0 0 0 16 13.55L16 13.45A0.45 0.45 0 0 1 16.45 13L16.55 13A0.45 0.45 0 0 1 17 13.45L17 13.55A0.45 0.45 0 0 0 17.45 14L18.55 14A0.45 0.45 0 0 1 19 14.45L19 14.55A0.45 0.45 0 0 0 19.45 15L19.55 15A0.45 0.45 0 0 0 20 14.55L20 14.45A0.45 0.45 0 0 0 19.55 14L19.45 14A0.45 0.45 0 0 1 19 13.55L19 13.45A0.45 0.45 0 0 1 19.45 13L20.55 13A0.45 0.45 0 0 0 21 12.55L21 12.45A0.45 0.45 0 0 0 20.55 12L19.45 12A0.45 0.45 0 0 0 19 12.45L19 12.55A0.45 0.45 0 0 1 18.55 13L17.45 13A0.45 0.45 0 0 1 17 12.55L17 12.45A0.45 0.45 0 0 1 17.45 12L17.55 12A0.45 0.45 0 0 0 18 11.55L18 11.45A0.45 0.45 0 0 0 17.55 11L17.45 11A0.45 0.45 0 0 1 17 10.55L17 10.45A0.45 0.45 0 0 0 16.55 10L16.45 10A0.45 0.45 0 0 0 16 10.45ZM36 10.45L36 10.55A0.45 0.45 0 0 0 36.45 11L36.55 11A0.45 0.45 0 0 0 37 10.55L37 10.45A0.45 0.45 0 0 0 36.55 10L36.45 10A0.45 0.45 0 0 0 36 10.45ZM4 11.45L4 12.55A0.45 0.45 0 0 0 4.45 13L6.55 13A0.45 0.45 0 0 0 7 12.55L7 12.45A0.45 0.45 0 0 0 6.55 12L5.45 12A0.45 0.45 0 0 1 5 11.55L5 11.45A0.45 0.45 0 0 0 4.55 11L4.45 11A0.45 0.45 0 0 0 4 11.45ZM25 11.45L25 11.55A0.45 0.45 0 0 0 25.45 12L25.55 12A0.45 0.45 0 0 0 26 11.55L26 11.45A0.45 0.45 0 0 0 25.55 11L25.45 11A0.45 0.45 0 0 0 25 11.45ZM9 13.45L9 13.55A0.45 0.45 0 0 0 9.45 14L9.55 14A0.45 0.45 0 0 1 10 14.45L10 14.55A0.45 0.45 0 0 1 9.55 15L8.45 15A0.45 0.45 0 0 0 8 15.45L8 16.55A0.45 0.45 0 0 1 7.55 17L7.45 17A0.45 0.45 0 0 0 7 17.45L7 17.55A0.45 0.45 0 0 0 7.45 18L7.55 18A0.45 0.45 0 0 0 8 17.55L8 17.45A0.45 0.45 0 0 1 8.45 17L8.55 17A0.45 0.45 0 0 0 9 16.55L9 16.45A0.45 0.45 0 0 1 9.45 16L9.55 16A0.45 0.45 0 0 1 10 16.45L10 17.55A0.45 0.45 0 0 0 10.45 18L10.55 18A0.45 0.45 0 0 0 11 17.55L11 16.45A0.45 0.45 0 0 0 10.55 16L10.45 16A0.45 0.45 0 0 1 10 15.55L10 15.45A0.45 0.45 0 0 1 10.45 15L10.55 15A0.45 0.45 0 0 0 11 14.55L11 14.45A0.45 0.45 0 0 0 10.55 14L10.45 14A0.45 0.45 0 0 1 10 13.55L10 13.45A0.45 0.45 0 0 0 9.55 13L9.45 13A0.45 0.45 0 0 0 9 13.45ZM27 13.45L27 13.55A0.45 0.45 0 0 0 27.45 14L27.55 14A0.45 0.45 0 0 0 28 13.55L28 13.45A0.45 0.45 0 0 0 27.55 13L27.45 13A0.45 0.45 0 0 0 27 13.45ZM35 14.45L35 14.55A0.45 0.45 0 0 0 35.45 15L35.55 15A0.45 0.45 0 0 0 36 14.55L36 14.45A0.45 0.45 0 0 0 35.55 14L35.45 14A0.45 0.45 0 0 0 35 14.45ZM0 15.45L0 15.55A0.45 0.45 0 0 0 0.45 16L0.55 16A0.45 0.45 0 0 1 1 16.45L1 16.55A0.45 0.45 0 0 0 1.45 17L1.55 17A0.45 0.45 0 0 0 2 16.55L2 15.45A0.45 0.45 0 0 0 1.55 15L0.45 15A0.45 0.45 0 0 0 0 15.45ZM14 18.45L14 18.55A0.45 0.45 0 0 1 13.55 19L13.45 19A0.45 0.45 0 0 0 13 19.45L13 19.55A0.45 0.45 0 0 0 13.45 20L13.55 20A0.45 0.45 0 0 0 14 19.55L14 19.45A0.45 0.45 0 0 1 14.45 19L14.55 19A0.45 0.45 0 0 1 15 19.45L15 19.55A0.45 0.45 0 0 0 15.45 20L15.55 20A0.45 0.45 0 0 0 16 19.55L16 19.45A0.45 0.45 0 0 0 15.55 19L15.45 19A0.45 0.45 0 0 1 15 18.55L15 18.45A0.45 0.45 0 0 0 14.55 18L14.45 18A0.45 0.45 0 0 0 14 18.45ZM19 18.45L19 18.55A0.45 0.45 0 0 1 18.55 19L17.45 19A0.45 0.45 0 0 0 17 19.45L17 19.55A0.45 0.45 0 0 0 17.45 20L17.55 20A0.45 0.45 0 0 1 18 20.45L18 20.55A0.45 0.45 0 0 1 17.55 21L17.45 21A0.45 0.45 0 0 0 17 21.45L17 21.55A0.45 0.45 0 0 0 17.45 22L17.55 22A0.45 0.45 0 0 0 18 21.55L18 21.45A0.45 0.45 0 0 1 18.45 21L18.55 21A0.45 0.45 0 0 1 19 21.45L19 22.55A0.45 0.45 0 0 0 19.45 23L19.55 23A0.45 0.45 0 0 0 20 22.55L20 22.45A0.45 0.45 0 0 1 20.45 22L20.55 22A0.45 0.45 0 0 1 21 22.45L21 22.55A0.45 0.45 0 0 0 21.45 23L21.55 23A0.45 0.45 0 0 0 22 22.55L22 22.45A0.45 0.45 0 0 0 21.55 22L21.45 22A0.45 0.45 0 0 1 21 21.55L21 21.45A0.45 0.45 0 0 1 21.45 21L21.55 21A0.45 0.45 0 0 0 22 20.55L22 20.45A0.45 0.45 0 0 0 21.55 20L19.45 20A0.45 0.45 0 0 1 19 19.55L19 19.45A0.45 0.45 0 0 1 19.45 19L19.55 19A0.45 0.45 0 0 0 20 18.55L20 18.45A0.45 0.45 0 0 0 19.55 18L19.45 18A0.45 0.45 0 0 0 19 18.45ZM7 19.45L7 19.55A0.45 0.45 0 0 0 7.45 20L7.55 20A0.45 0.45 0 0 1 8 20.45L8 20.55A0.45 0.45 0 0 1 7.55 21L7.45 21A0.45 0.45 0 0 0 7 21.45L7 21.55A0.45 0.45 0 0 1 6.55 22L5.45 22A0.45 0.45 0 0 1 5 21.55L5 21.45A0.45 0.45 0 0 0 4.55 21L3.45 21A0.45 0.45 0 0 0 3 21.45L3 21.55A0.45 0.45 0 0 0 3.45 22L3.55 22A0.45 0.45 0 0 1 4 22.45L4 22.55A0.45 0.45 0 0 0 4.45 23L6.55 23A0.45 0.45 0 0 0 7 22.55L7 22.45A0.45 0.45 0 0 1 7.45 22L8.55 22A0.45 0.45 0 0 0 9 21.55L9 20.45A0.45 0.45 0 0 0 8.55 20L8.45 20A0.45 0.45 0 0 1 8 19.55L8 19.45A0.45 0.45 0 0 0 7.55 19L7.45 19A0.45 0.45 0 0 0 7 19.45ZM24 19.45L24 19.55A0.45 0.45 0 0 1 23.55 20L23.45 20A0.45 0.45 0 0 0 23 20.45L23 22.55A0.45 0.45 0 0 0 23.45 23L24.55 23A0.45 0.45 0 0 0 25 22.55L25 22.45A0.45 0.45 0 0 1 25.45 22L25.55 22A0.45 0.45 0 0 0 26 21.55L26 21.45A0.45 0.45 0 0 0 25.55 21L24.45 21A0.45 0.45 0 0 1 24 20.55L24 20.45A0.45 0.45 0 0 1 24.45 20L25.55 20A0.45 0.45 0 0 0 26 19.55L26 19.45A0.45 0.45 0 0 0 25.55 19L24.45 19A0.45 0.45 0 0 0 24 19.45ZM27 19.45L27 19.55A0.45 0.45 0 0 0 27.45 20L27.55 20A0.45 0.45 0 0 0 28 19.55L28 19.45A0.45 0.45 0 0 0 27.55 19L27.45 19A0.45 0.45 0 0 0 27 19.45ZM10 23.45L10 23.55A0.45 0.45 0 0 0 10.45 24L10.55 24A0.45 0.45 0 0 0 11 23.55L11 23.45A0.45 0.45 0 0 0 10.55 23L10.45 23A0.45 0.45 0 0 0 10 23.45ZM17 26.45L17 26.55A0.45 0.45 0 0 0 17.45 27L17.55 27A0.45 0.45 0 0 0 18 26.55L18 26.45A0.45 0.45 0 0 0 17.55 26L17.45 26A0.45 0.45 0 0 0 17 26.45ZM28 26.45L28 26.55A0.45 0.45 0 0 1 27.55 27L27.45 27A0.45 0.45 0 0 0 27 27.45L27 27.55A0.45 0.45 0 0 0 27.45 28L27.55 28A0.45 0.45 0 0 1 28 28.45L28 29.55A0.45 0.45 0 0 0 28.45 30L29.55 30A0.45 0.45 0 0 0 30 29.55L30 29.45A0.45 0.45 0 0 0 29.55 29L29.45 29A0.45 0.45 0 0 1 29 28.55L29 28.45A0.45 0.45 0 0 1 29.45 28L29.55 28A0.45 0.45 0 0 0 30 27.55L30 27.45A0.45 0.45 0 0 0 29.55 27L29.45 27A0.45 0.45 0 0 1 29 26.55L29 26.45A0.45 0.45 0 0 0 28.55 26L28.45 26A0.45 0.45 0 0 0 28 26.45ZM4 27.45L4 27.55A0.45 0.45 0 0 0 4.45 28L4.55 28A0.45 0.45 0 0 0 5 27.55L5 27.45A0.45 0.45 0 0 0 4.55 27L4.45 27A0.45 0.45 0 0 0 4 27.45ZM28 27.45L28 27.55A0.45 0.45 0 0 0 28.45 28L28.55 28A0.45 0.45 0 0 0 29 27.55L29 27.45A0.45 0.45 0 0 0 28.55 27L28.45 27A0.45 0.45 0 0 0 28 27.45ZM35 30.45L35 30.55A0.45 0.45 0 0 0 35.45 31L35.55 31A0.45 0.45 0 0 0 36 30.55L36 30.45A0.45 0.45 0 0 0 35.55 30L35.45 30A0.45 0.45 0 0 0 35 30.45ZM27 32.45L27 32.55A0.45 0.45 0 0 1 26.55 33L26.45 33A0.45 0.45 0 0 0 26 33.45L26 33.55A0.45 0.45 0 0 0 26.45 34L26.55 34A0.45 0.45 0 0 0 27 33.55L27 33.45A0.45 0.45 0 0 1 27.45 33L27.55 33A0.45 0.45 0 0 0 28 32.55L28 32.45A0.45 0.45 0 0 0 27.55 32L27.45 32A0.45 0.45 0 0 0 27 32.45ZM33 33.45L33 35.55A0.45 0.45 0 0 0 33.45 36L35.55 36A0.45 0.45 0 0 0 36 35.55L36 33.45A0.45 0.45 0 0 0 35.55 33L33.45 33A0.45 0.45 0 0 0 33 33.45ZM34 34.45L34 34.55A0.45 0.45 0 0 0 34.45 35L34.55 35A0.45 0.45 0 0 0 35 34.55L35 34.45A0.45 0.45 0 0 0 34.55 34L34.45 34A0.45 0.45 0 0 0 34 34.45ZM26 35.45L26 35.55A0.45 0.45 0 0 1 25.55 36L25.45 36A0.45 0.45 0 0 0 25 36.45L25 36.55A0.45 0.45 0 0 0 25.45 37L25.55 37A0.45 0.45 0 0 0 26 36.55L26 36.45A0.45 0.45 0 0 1 26.45 36L26.55 36A0.45 0.45 0 0 0 27 35.55L27 35.45A0.45 0.45 0 0 0 26.55 35L26.45 35A0.45 0.45 0 0 0 26 35.45ZM16 36.45L16 36.55A0.45 0.45 0 0 0 16.45 37L16.55 37A0.45 0.45 0 0 0 17 36.55L17 36.45A0.45 0.45 0 0 0 16.55 36L16.45 36A0.45 0.45 0 0 0 16 36.45ZM10 38.45L10 39.55A0.45 0.45 0 0 0 10.45 40L10.55 40A0.45 0.45 0 0 0 11 39.55L11 38.45A0.45 0.45 0 0 0 10.55 38L10.45 38A0.45 0.45 0 0 0 10 38.45ZM37 38.45L37 39.55A0.45 0.45 0 0 1 36.55 40L36.45 40A0.45 0.45 0 0 1 36 39.55L36 39.45A0.45 0.45 0 0 0 35.55 39L35.45 39A0.45 0.45 0 0 0 35 39.45L35 39.55A0.45 0.45 0 0 1 34.55 40L34.45 40A0.45 0.45 0 0 1 34 39.55L34 39.45A0.45 0.45 0 0 0 33.55 39L33.45 39A0.45 0.45 0 0 0 33 39.45L33 39.55A0.45 0.45 0 0 0 33.45 40L33.55 40A0.45 0.45 0 0 1 34 40.45L34 40.55A0.45 0.45 0 0 0 34.45 41L34.55 41A0.45 0.45 0 0 0 35 40.55L35 40.45A0.45 0.45 0 0 1 35.45 40L35.55 40A0.45 0.45 0 0 1 36 40.45L36 40.55A0.45 0.45 0 0 0 36.45 41L36.55 41A0.45 0.45 0 0 0 37 40.55L37 40.45A0.45 0.45 0 0 1 37.45 40L37.55 40A0.45 0.45 0 0 1 38 40.45L38 40.55A0.45 0.45 0 0 0 38.45 41L38.55 41A0.45 0.45 0 0 0 39 40.55L39 40.45A0.45 0.45 0 0 0 38.55 40L38.45 40A0.45 0.45 0 0 1 38 39.55L38 39.45A0.45 0.45 0 0 1 38.45 39L39.55 39A0.45 0.45 0 0 1 40 39.45L40 39.55A0.45 0.45 0 0 0 40.45 40L40.55 40A0.45 0.45 0 0 0 41 39.55L41 39.45A0.45 0.45 0 0 0 40.55 39L40.45 39A0.45 0.45 0 0 1 40 38.55L40 38.45A0.45 0.45 0 0 0 39.55 38L37.45 38A0.45 0.45 0 0 0 37 38.45ZM29 40.45L29 40.55A0.45 0.45 0 0 0 29.45 41L30.55 41A0.45 0.45 0 0 0 31 40.55L31 40.45A0.45 0.45 0 0 0 30.55 40L29.45 40A0.45 0.45 0 0 0 29 40.45ZM0 3.5C0 0 0 0 3.5 0M0 3.5C0 7 0 7 3.5 7M3.5 7C7 7 7 7 7 3.5M7 3.5C7 0 7 0 3.5 0M7 3.5A0 0 0 0 1 3.5 7A0 0 0 0 1 0 3.5A0 0 0 0 1 3.5 0A0 0 0 0 1 7 3.5ZM1 3.5C1 1 1 1 3.5 1M1 3.5C1 6 1 6 3.5 6M3.5 6C6 6 6 6 6 3.5M6 3.5C6 1 6 1 3.5 1M6 3.5A0 0 0 0 1 3.5 6A0 0 0 0 1 1 3.5A0 0 0 0 1 3.5 1A0 0 0 0 1 6 3.5ZM2 2L5 2L5 5L2 5ZM37.5 0C41 0 41 0 41 3.5M37.5 0C34 0 34 0 34 3.5M34 3.5C34 7 34 7 37.5 7M37.5 7C41 7 41 7 41 3.5M37.5 7A0 0 0 0 1 34 3.5A0 0 0 0 1 37.5 0A0 0 0 0 1 41 3.5A0 0 0 0 1 37.5 7ZM37.5 1C40 1 40 1 40 3.5M37.5 1C35 1 35 1 35 3.5M35 3.5C35 6 35 6 37.5 6M37.5 6C40 6 40 6 40 3.5M37.5 6A0 0 0 0 1 35 3.5A0 0 0 0 1 37.5 1A0 0 0 0 1 40 3.5A0 0 0 0 1 37.5 6ZM39 2L39 5L36 5L36 2ZM3.5 41C0 41 0 41 0 37.5M3.5 41C7 41 7 41 7 37.5M7 37.5C7 34 7 34 3.5 34M3.5 34C0 34 0 34 0 37.5M3.5 34A0 0 0 0 1 7 37.5A0 0 0 0 1 3.5 41A0 0 0 0 1 0 37.5A0 0 0 0 1 3.5 34ZM3.5 40C1 40 1 40 1 37.5M3.5 40C6 40 6 40 6 37.5M6 37.5C6 35 6 35 3.5 35M3.5 35C1 35 1 35 1 37.5M3.5 35A0 0 0 0 1 6 37.5A0 0 0 0 1 3.5 40A0 0 0 0 1 1 37.5A0 0 0 0 1 3.5 35ZM2 39L2 36L5 36L5 39Z" fill="#000000"/></g></g></svg>
